<svg version="1.0" xmlns="http://www.w3.org/2000/svg"
 viewBox="0 0 24 24"
 preserveAspectRatio="xMidYMid meet">

<g transform="translate(0.000000,457.000000) scale(0.100000,-0.100000)"
fill="#0C6291" stroke="none">
<path d="M1865 3875 c-47 -46 -24 -125 42 -141 53 -14 113 46 99 99 -16 67
-94 90 -141 42z"/>
<path d="M2650 3880 c-44 -44 -34 -108 21 -139 52 -29 119 13 119 74 0 72 -91
114 -140 65z"/>
<path d="M1103 3550 c-134 -30 -178 -205 -75 -292 167 -140 384 80 238 240
-40 45 -105 65 -163 52z"/>
<path d="M1882 3547 c-80 -16 -143 -109 -128 -189 26 -140 193 -193 292 -94
57 57 64 150 17 222 -33 50 -109 76 -181 61z"/>
<path d="M2674 3550 c-147 -34 -187 -225 -64 -306 100 -66 226 -20 261 95 35
118 -78 239 -197 211z"/>
<path d="M3451 3550 c-71 -16 -122 -75 -129 -149 -6 -65 10 -102 61 -146 68
-59 150 -57 222 6 128 113 14 326 -154 289z"/>
<path d="M1825 2944 c-62 -16 -90 -30 -135 -65 -134 -106 -147 -322 -26 -443
63 -64 126 -90 216 -90 61 0 85 5 132 27 228 110 223 446 -8 548 -43 19 -143
32 -179 23z"/>
<path d="M2677 2940 c-270 -68 -309 -446 -59 -566 116 -56 272 -28 353 63 138
158 89 402 -97 484 -51 23 -145 32 -197 19z"/>
<path d="M1047 2745 c-20 -14 -46 -43 -57 -65 -75 -147 83 -305 230 -230 124
63 123 241 -2 306 -45 23 -127 18 -171 -11z"/>
<path d="M3400 2748 c-52 -36 -73 -71 -78 -132 -4 -46 0 -62 22 -100 68 -116
237 -111 296 10 39 79 18 164 -53 215 -53 38 -136 41 -187 7z"/>
<path d="M670 2677 c-80 -40 -51 -157 38 -157 80 0 113 92 51 144 -34 29 -52
32 -89 13z"/>
<path d="M3894 2680 c-55 -22 -70 -95 -29 -135 51 -52 145 -16 145 54 0 57
-66 102 -116 81z"/>
<path d="M1783 2062 c-166 -59 -244 -230 -182 -398 44 -117 148 -187 279 -188
126 0 219 58 272 169 52 112 34 243 -48 334 -78 87 -212 122 -321 83z"/>
<path d="M2665 2067 c-67 -23 -101 -44 -143 -92 -129 -146 -80 -386 96 -472
114 -56 272 -27 353 64 75 86 100 209 63 316 -20 60 -84 132 -146 163 -61 31
-164 40 -223 21z"/>
<path d="M1060 1967 c-51 -27 -90 -90 -90 -145 0 -20 9 -55 21 -79 77 -159
321 -100 321 77 0 132 -134 210 -252 147z"/>
<path d="M3414 1971 c-55 -25 -87 -71 -92 -136 -8 -101 54 -175 153 -183 137
-11 225 124 163 248 -41 80 -137 110 -224 71z"/>
<path d="M670 1897 c-55 -28 -63 -112 -13 -144 59 -39 133 -2 133 67 0 62 -67
105 -120 77z"/>
<path d="M3894 1900 c-85 -35 -60 -164 31 -164 72 0 111 84 63 138 -26 29 -63
39 -94 26z"/>
<path d="M1084 1199 c-42 -12 -101 -79 -110 -123 -20 -111 57 -206 169 -206
99 0 169 71 169 172 0 115 -111 191 -228 157z"/>
<path d="M1855 1191 c-167 -77 -115 -321 69 -321 79 0 145 51 165 128 21 76
-15 152 -89 190 -53 27 -92 28 -145 3z"/>
<path d="M2631 1188 c-52 -27 -79 -60 -91 -111 -23 -104 57 -207 162 -207 129
0 211 118 160 232 -41 94 -144 132 -231 86z"/>
<path d="M3439 1201 c-144 -47 -161 -248 -27 -317 44 -23 134 -15 176 15 41
28 72 89 72 137 0 52 -35 119 -74 144 -38 23 -109 33 -147 21z"/>
<path d="M1885 678 c-78 -45 -45 -158 46 -158 30 0 79 53 79 85 0 33 -50 85
-82 85 -13 0 -32 -6 -43 -12z"/>
<path d="M2650 662 c-39 -39 -39 -74 -1 -113 37 -37 78 -38 115 -4 52 48 26
130 -46 142 -32 5 -41 1 -68 -25z"/>
</g>
</svg>